<svg viewBox="0 0 168 85" xmlns="http://www.w3.org/2000/svg">
  <g transform="translate(-.780749 1)" fill="#FFF" fill-rule="evenodd">
    <path d="M148.265306 56c-.961196 0-1.860682.2241084-2.697522.6733676-.836839.4148611-1.566152.986077-2.187003 1.7115628-.619916.7265282-1.115475 1.5729283-1.487611 2.5402427-.341281.9339588-.511454 1.9189934-.511454 2.9561462 0 .8297223.139317 1.6250466.418887 2.3849304.278635.7265282.650772 1.3654977 1.11641 1.9189934.495559.5534956 1.069659.9850346 1.72043 1.2956593.650771.3460651 1.349229.5190976 2.092567.5190976.899485 0 1.751285-.2241084 2.559139-.6744099.80692-.4148612 1.504442-.9850347 2.093502-1.7115628.618981-.7598839 1.099579-1.6240042 1.44086-2.5913186.372137-.9683568.558205-1.9877895.558205-3.0593404 0-1.6938426-.480598-3.1114585-1.441795-4.2518055C151.00958 56.5701735 149.784708 56 148.265306 56z"/>
    <path d="M98.5922607 51.4474054c.3812664-.8764787.8441642-1.7840918 1.3848518-2.7218957.5426085-.9708252 1.1476405-1.9397634 1.8160575-2.9096451.701069-.9708252 1.480889-1.831265 2.341379-2.5822629.891222-.7821322 1.863115-1.4076493 2.913759-1.8765512 1.050643-.468902 2.181958-.7038247 3.392022-.7038247h.430246c.126768 0 .268903.0150954.428324.0462298.383187.0632121.717396.2349227 1.003585.5170186.318843.2811525.478264.6566515.478264 1.1264969 0 .5623049-.270824 1.2359387-.811512 2.0171275-.541648.7519413-1.528907 1.5642644-2.961777 2.4407431-.318842.1877495-.875856.548153-1.672002 1.0793237-.764453.532114-1.672962 1.1264968-2.723606 1.7831482-1.050643.6575949-2.181958 1.3463241-3.392983 2.0652442-1.177412.7198636-2.3240921 1.3614196-3.4381199 1.924668.1911134-.5943827.4619374-1.3302852.8115116-2.2058204m-33.7067914-2.6372421c.5445576-.9810061 1.1539205-1.9601056 1.8280887-2.9401584.7060872-.9810061 1.4914883-1.8504693 2.3581377-2.6093429.8976013-.7903344 1.8754836-1.4224113 2.9346144-1.8962306 1.0591308-.4738193 2.1975755-.7112056 3.4163013-.7112056h.4333247c.1276761 0 .2717952.0152537.4323575.0467146.3849626.063875.7215631.2373863 1.0107686.5224406.3211246.2841009.4816869.6635377.4816869 1.1383103 0 .5682019-.2727624 1.2489-.8182873 2.0382811-.5455249.7598269-1.5398504 1.5806688-2.9839438 2.4663391-.3201573.1897184-.8811581.5539014-1.6839696 1.0906424-.7689579.5376943-1.6830023 1.1383103-2.7421331 1.801848-1.0591307.6644911-2.1966082 1.360443-3.4163012 2.0869023-1.0978205.6730713-2.1656564 1.2708273-3.2093113 1.8085216-.0454604-.0619683-.0928553-.1229833-.1460537-.1792314.1837761-.5443679.4120454-1.1669112.7089889-1.9133911.3849626-.8856702.8502064-1.8028014 1.3957313-2.75044m103.3125227-31.259801c-.388505-1.0909467-.906837-1.9894304-1.554019-2.6944837-.61497-.7060206-1.343172-1.2350524-2.184607-1.5880626-.809222-.3520431-1.667252-.5290318-2.574088-.5290318-1.941548 0-3.981686.3365686-6.117486 1.009706-2.104563.6741045-4.273552 1.8772409-6.506967 3.6084419-2.233414 1.7321681-4.515635 4.0900832-6.846664 7.0727781-2.298816 2.9826949-4.596655 6.7671583-6.895471 11.3543574h-5.729957c-1.553043 0-2.735152.3684847-3.544374 1.1064212-.809222.7050533-1.214322 1.4429898-1.214322 2.2128424 0 .7369693.32408 1.3791578.971262 1.9246312.648159.5454734 1.861504.817243 3.641988.817243h2.574088l-5.367808 11.2702151c-.327008.1692515-.800437.4361853-1.431025.8056372-.841435.5135574-1.910311 1.1228627-3.204676 1.8279161-1.262152.7060205-2.686345 1.4594314-4.272576 2.2612-1.586232.7698525-3.222247 1.4923146-4.904141 2.1654519-1.652609.6731374-3.334503 1.2350524-5.050562 1.6838106-1.682869.4168423-3.269101.625747-4.758695.625747-1.391979 0-2.508686-.2572623-3.3510974-.7698526-.8404588-.5454733-1.3421961-1.2834099-1.5042358-2.2128423 4.4024032-1.6045042 8.0600092-3.1915996 10.9737952-4.7632207 2.945998-1.603537 5.292645-3.1596836 7.040917-4.6665054 1.748271-1.5397051 2.978211-3.0474941 3.689819-4.5224.712584-1.475873 1.068876-2.8869469 1.068876-4.2341888 0-2.2776415-.663777-4.0572001-1.992307-5.34061-1.325602-1.2824427-3.332551-1.9236641-6.020848-1.9236641-2.556517 0-4.96759.3684847-7.235169 1.1064212-2.232438.7379365-4.288194 1.7157266-6.1653165 2.9343374-1.8780984 1.2195779-3.5775627 2.6306517-5.0983929 4.2341888-1.4895936 1.571621-2.751746 3.1915996-3.7884095 4.8589686-1.0356873 1.667369-1.8283151 3.3357051-2.3788595 5.0040413-.4509779 1.3375703-.7067272 2.5861628-.7887232 3.7525474-1.1752757.6499257-2.47745 1.3385375-3.9211649 2.0677697-1.5862317.7698525-3.2212706 1.4923146-4.9051166 2.1654519-1.6506572.6731374-3.3345032 1.2350524-5.0495857 1.6838106-1.6828699.4168423-3.2691016.625747-4.7586952.625747-1.3919794 0-2.5086865-.2572623-3.3501215-.7698526-.8414349-.5454733-1.3431722-1.2834099-1.5052119-2.2128423 4.4024032-1.6045042 8.0609857-3.1915996 10.9737952-4.7632207 2.9459984-1.603537 5.2926453-3.1596836 7.0409167-4.6665054 1.7482714-1.5397051 2.9782111-3.0474941 3.689819-4.5224.7125842-1.475873 1.0688762-2.8869469 1.0688762-4.2341888 0-2.2776415-.663777-4.0572001-1.9913309-5.34061-1.3265778-1.2824427-3.333527-1.9236641-6.0208476-1.9236641-2.5574937 0-4.9685659.3684847-7.2351691 1.1064212-2.2334143.7379365-4.2891706 1.7157266-6.167269 2.9343374-1.8761461 1.2195779-3.5765865 2.6306517-5.0974167 4.2341888-1.4895936 1.571621-2.7527221 3.1915996-3.7874333 4.8589686-1.0366635 1.667369-1.8292913 3.3357051-2.3798357 5.0040413-.5505444 1.6344858-.8248405 3.1422748-.8248405 4.5214327 0 .8530276.0663777 1.6867121.1903478 2.503955-.9507629.5783565-2.0215913 1.1247971-3.2407934 1.6335187-1.8458857.7698525-3.949473 1.1547788-6.3127143 1.1547788h-.6793953c-.2274412 0-.4705007-.0164416-.7282023-.0483576-1.2963174-.095748-2.525281-.7369694-3.6917714-1.9246313-1.1645381-1.1866947-2.2334143-2.6132431-3.2046762-4.2815792-.938073-1.699285-1.7472953-3.4798107-2.4276667-5.3396429-.6471825-1.8927152-1.1167071-3.5929674-1.4085737-5.0997892 2.0723507-.3530103 4.2091269-.9303997 6.4103285-1.7321682 2.2334143-.8017685 4.4033793-1.7805257 6.5069666-2.9343373 2.1035873-1.1547788 4.0793-2.4701047 5.9232334-3.9459777 1.8780983-1.5068219 3.5131372-3.1422749 4.9051166-4.906359 1.3910032-1.7960002 2.4920921-3.7041899 3.3013143-5.7255363.8424111-2.0522952 1.2621524-4.2013056 1.2621524-6.4470312 0-3.334738-.6959897-6.2536009-2.0869929-8.7556215-1.3597667-2.5020207-3.2056523-4.56979038-5.5357048-6.20621053-2.3310285-1.66833616-5.0183491-2.91886291-8.0609856-3.75254741C41.5688681.07006806 38.412999-.3467742 35.1107086-.3467742c-3.3667159 0-6.5547977.35301026-9.5652215 1.05806362-3.0113999.67313737-5.7953587 1.58806259-8.3528523 2.7418742-2.5252809 1.12286277-4.8075023 2.43818867-6.8456881 3.94597769-2.04013807 1.47490587-3.77181506 3.01461088-5.19698327 4.61814788-1.39100321 1.603537-2.47549765 3.207074-3.25250717 4.8106111-.74382067 1.603537-1.11670715 3.0958516-1.11670715 4.4750095 0 1.4749058.40509919 2.6296846 1.21334527 3.4633691.80922222.8017685 2.02354363 1.2031363 3.64198807 1.2031363 1.19772699 0 2.20120159-.2727367 3.01042381-.81821.81019837-.5454734 1.53840074-1.2505268 2.18558334-2.1161273.6793952-.8665676 1.3275539-1.8607993 1.9425238-2.983662.6149698-1.1228628 1.2943651-2.2766744 2.0391619-3.4633692.7770095-1.1876619 1.6828698-2.3414735 2.7195333-3.4643363 1.0679-1.1228627 2.3632412-2.1161272 3.8840714-2.9826949 1.5540191-.86656763 3.3823342-1.57162099 5.4878738-2.11709438 2.1358-.54547339 4.6776754-.81821008 7.6226976-.81821008 2.6228952 0 4.8719278.30465269 6.74905.91492522 1.9103111.60930538 3.4643301 1.4265483 4.6620571 2.45366304 1.2299397 1.0261477 2.1201818 2.2283169 2.6707262 3.6074747.5827571 1.3791579.8736476 2.8385894.8736476 4.3782944 0 2.1490104-.5495682 4.3618528-1.6506571 6.6394943-1.0688762 2.2766744-2.5418754 4.3454112-4.4180215 6.2062105-1.8780983 1.8598321-4.0792999 3.3995372-6.6045809 4.6181479-2.4930682 1.1866948-5.1462238 1.7805257-7.9633714 1.7805257H28.16643c-.1942523 0-.3875286-.0164415-.581781-.0483575.841435-1.7640842 1.6506572-3.4798107 2.4276667-5.1481469.7770095-1.699285 1.4564048-3.2554316 2.0391619-4.6665055.5827572-1.4110739 1.0522818-2.6616006 1.4075977-3.7525474.3572682-1.0909468.5349261-1.9401057.5349261-2.5494111 0-.6093053-.0966381-1.1064212-.2918666-1.4913474-.1942524-.4168423-.4197414-.7214949-.6793953-.9149252-.2596539-.2243792-.5495683-.3684847-.8736476-.4323167-.3240794-.0967151-.5993516-.1441056-.8258167-.1441056-.8414349 0-1.7970785.4806743-2.8649785 1.4429899-1.0356873.9303997-2.1523945 2.1809264-3.3501215 3.7525474-1.1664904 1.571621-2.3798356 3.3840628-3.641988 5.436358-1.2309159 2.0203793-2.4598794 4.1219993-3.6907953 6.3019585L3.45147529 61.570258c-.35629205.6741046-.63156427 1.3955995-.82581664 2.165452-.19425238.7698525-.2908905 1.5232634-.2908905 2.2612 0 .5135574.06442541 1.0580636.19425238 1.635453.16203967.5773894.42071746 1.1064212.77700951 1.5880626.35531591.4806742.85802936.882042 1.50521191 1.2021691.64718255.3210943 1.48861748.4816414 2.52528093.4816414 1.26215239 0 2.42766667-.4497254 3.49556672-1.3472419 1.0679-.8984836 2.0723507-2.0687368 3.0104238-3.5117267.9390492-1.475873 1.7970785-3.1277676 2.5731119-4.9556837.7770095-1.8607993 1.5218063-3.737073 2.2334143-5.6288211.7125841-1.8927153 1.3773372-3.7206314 1.9923071-5.4847156.6139937-1.7960001 1.2133452-3.3511796 1.7951262-4.6665054 1.0366635 3.3357051 2.2187722 6.5108631 3.54535 9.525474 1.3275539 2.9826949 2.799577 5.5969051 4.4189976 7.8416635 1.6184444 2.2457256 3.415523 4.0252841 5.3892833 5.34061 1.9747365 1.3153259 4.1281071 1.9729889 6.4581595 1.9729889 2.8483842 0 5.8597841-.7060206 9.0322476-2.1170944 1.5354723-.6915133 3.0865629-1.5803254 4.6522957-2.6548306.2274412.3356015.4705007.6595972.7291785.97102 1.0679 1.2505267 2.3466468 2.2447584 3.8362405 2.9826949 1.5208301.7379365 3.2525071 1.1064212 5.1950309 1.1064212 2.265627 0 4.5644429-.3046527 6.8944953-.9139581 2.3310285-.5773894 4.565419-1.3153259 6.7021951-2.2128424 2.1680128-.8984836 4.2071747-1.8762737 6.1174858-2.9353045 1.170395-.6566957 2.2412234-1.2872785 3.2359127-1.8985181.5388307 1.4449241 1.266057 2.740907 2.2021777 3.871507 1.0688762 1.2505267 2.347623 2.2447584 3.8362405 2.9826949 1.5218063.7379365 3.2534833 1.1064212 5.195031 1.1064212 2.2666034 0 4.5654194-.3046527 6.8964474-.9139581 2.330053-.5773894 4.564443-1.3153259 6.700243-2.2128424 2.168989-.8984836 4.208151-1.8762737 6.118462-2.9353045.968333-.543539 1.876146-1.0706365 2.723438-1.5822596l-7.239074 15.197817c-.357268.7379365-.631564 1.3791579-.825816 1.9236641-.194253.5783565-.290891 1.0754723-.290891 1.4923146 0 .8336845.307485 1.4429899.921479 1.8279161.615946.3849263 1.311935.5773894 2.088945.5773894.550544 0 1.14892-.1286311 1.796102-.3849262.648159-.2243792 1.278747-.5609479 1.893717-1.0106733.615946-.4487582 1.182109-.9932644 1.699464-1.635453.518332-.6093053.955644-1.2824427 1.31096-2.0203792.518331-1.0261477 1.198703-2.4217471 2.040138-4.1858313.841435-1.7321681 1.780484-3.6722738 2.816171-5.8212842 1.035687-2.1809264 2.120182-4.4740423 3.253483-6.8793479 1.165515-2.4381886 2.314435-4.8434941 3.447736-7.2168837 1.165514-2.3733895 2.265627-4.6345894 3.301314-6.7835998 1.068877-2.1809264 2.023544-4.0891161 2.864979-5.7245691h8.44949c1.424193-.0328832 2.880597-.0647992 4.369215-.0967152 1.521806-.031916 3.124632-.0802735 4.807502-.1441055.874624-.0647992 1.586232-.1924632 2.136776-.3849263.550545-.2243791.971262-.4806742 1.262153-.7698525.324079-.3210943.550544-.6576629.680371-1.0106732.129827-.3520431.194253-.7050534.194253-1.0580636 0-.7060205-.194253-1.2350524-.582758-1.5870955-.356292-.3849262-.873647-.6586301-1.554019-.81821-.647182-.1605472-1.407597-.2562952-2.282221-.2891783-.873648-.031916-1.813673-.0473904-2.816172-.0473904H144.74519c.808246-1.9246313 1.844909-3.800905 3.107062-5.6297883 1.263128-1.8598321 2.574088-3.5117267 3.932878-4.9547166 1.391979-1.4429899 2.751746-2.5977686 4.0793-3.4643363 1.358791-.8656005 2.540899-1.2988843 3.544374-1.2988843.842411 0 1.505212.2882111 1.991331.8665677.517355.5773893.777009 1.5387378.777009 2.8859797 0 .3530103-.033188.7060205-.097614 1.0590308-.032213.3520431-.047831.7369694-.047831 1.1538116 0 .6421885.274296 1.1228628.824841 1.443957.549568.2882111 1.148919.4323167 1.797078.4323167.258678 0 .566163-.031916.922455-.095748.356292-.095748.711608-.2408207 1.0679-.4332838.356292-.1924631.680371-.4323167.971262-.7214949.291866-.3210943.486119-.7060206.582757-1.1547788.388505-1.667369.582757-3.1906325.582757-4.5697903 0-1.4439571-.194252-2.6944838-.582757-3.7525475"/>
  </g>
</svg>
