<svg xmlns="http://www.w3.org/2000/svg" viewBox="0 0 55 63">
    <path d="M322.80306 311.032994h.578518c2.398023 0 4.658898-.515895 6.780962-1.548527 2.150325-1.060405 4.02469-2.400218 5.623927-4.018597 1.598405-1.619221 2.852692-3.419384 3.762029-5.400489.937598-1.981946 1.406397-3.907506 1.406397-5.777521 0-1.339813-.24853-2.609773-.744759-3.809882-.467968-1.200108-1.226857-2.246206-2.274174-3.139134-1.019887-.893769-2.343164-1.605755-3.968999-2.135957-1.599237-.530203-3.515162-.795304-5.747776-.795304-2.507742 0-4.672198.237329-6.490872.711986-1.792076.474657-3.349752 1.088177-4.672198 1.842242-1.295847.753224-2.398855 1.61838-3.308192 2.595467-.881907.976245-1.654096 1.981105-2.315734 3.013737-.634209 1.032632-1.212727 2.037491-1.736385 3.014578-.523659.976246-1.074747 1.842243-1.654096 2.595466-.551089.753224-1.171167 1.367586-1.860235 1.842243-.689068.474657-1.543546.711144-2.563433.711144-1.378967 0-2.412154-.348418-3.101222-1.046097-.689068-.725452-1.034018-1.730311-1.034018-3.014579 0-1.199267.316689-2.497842.950897-3.893199.661639-1.395358 1.585106-2.790716 2.770403-4.186073 1.213558-1.395358 2.687283-2.735171 4.424499-4.019438 1.736386-1.311199 3.679741-2.455762 5.829234-3.432849 2.178586-1.00486 4.54918-1.800163 7.112613-2.385911 2.563433-.614361 5.278145-.9207 8.144968-.9207 2.811963 0 5.499246.362726 8.06351 1.088177 2.590863.725451 4.878336 1.813628 6.863252 3.265373 1.984915 1.42313 3.55589 3.223293 4.713758 5.400488 1.185297 2.176354 1.777945 4.716276 1.777945 7.618922 0 1.953333-.358249 3.824189-1.074747 5.610045-.689899 1.758084-1.626666 3.419384-2.811963 4.982218-1.185297 1.53422-2.577564 2.958192-4.175969 4.269391-1.570976 1.284267-3.252501 2.428831-5.044577 3.432849-1.792076 1.00486-3.63818 1.856549-5.540806 2.554228-1.874365.697679-3.693871 1.200109-5.457686 1.50729.247699 1.311198.647508 2.790715 1.198597 4.437708.579349 1.61838 1.268417 3.167748 2.068035 4.646424.827048 1.451744 1.736385 2.69309 2.728843 3.725722.992458 1.032632 2.039775 1.591449 3.141951 1.674766.2211.027773.427239.04208.62091.04208h.578518c2.012344 0 3.803589-.334953 5.375396-1.00486 1.570975-.669906 2.880122-1.409664 3.927439-2.218433 1.240987-.921542 2.315734-1.995412 3.225071-3.224135.855309-.976245 1.723086-1.46521 2.605825-1.46521.551088 0 1.019887.195249 1.405566.586589.385679.390498.578518.920701.578518 1.590607 0 .642134-.20697 1.395358-.620078 2.260513-.385679.837383-1.061448 1.716004-2.026476 2.637546-2.838561 2.707398-5.623095 4.688503-8.351938 5.944998-2.701413 1.227881-5.264846 1.842242-7.690299 1.842242-1.984915 0-3.81772-.573123-5.499246-1.716845-1.681526-1.144564-3.211772-2.693091-4.589908-4.647265-1.378137-1.953332-2.632424-4.228153-3.762861-6.823619-1.129606-2.623239-2.136194-5.386181-3.018102-8.288828-.496229 1.143722-1.005757 2.497841-1.529415 4.060676-.52449 1.535061-1.088877 3.125668-1.695656 4.772661-.605948 1.646152-1.240988 3.278839-1.901795 4.898059-.661638 1.590607-1.392267 3.028044-2.191885 4.312312-.799618 1.255654-1.653265 2.273979-2.563433 3.055816-.909337.780997-1.901795 1.171495-2.976542 1.171495-.882739 0-1.599236-.138862-2.150325-.418271-.551088-.279408-.978327-.627826-1.281716-1.046097-.30339-.419112-.523659-.879463-.661639-1.381892-.11055-.50243-.165409-.977087-.165409-1.423131 0-.642133.082289-1.297733.24853-1.967639.164578-.669906.398978-1.297733.702367-1.884322l12.197919-22.606814c1.047317-1.897788 2.094634-3.725723 3.141951-5.483806 1.074747-1.785856 2.108765-3.362997 3.101222-4.730583 1.019888-1.367585 1.970785-2.455762 2.853524-3.265372.909337-.837383 1.722255-1.256495 2.438752-1.256495.19284 0 .427239.042079.703199.125397.275129.056386.523659.181783.743928.377032.220269.167477.413939.432578.579349.795304.165409.334953.247699.768372.247699 1.297733 0 .531044-.15128 1.26996-.454669 2.219275-.303389.949315-.703199 2.037492-1.198596 3.265373-.49706 1.227881-1.075578 2.581159-1.737217 4.060676-.661638 1.450902-1.350706 2.944726-2.067204 4.479788.16541.027772.330819.041238.496229.041238z" transform="translate(-299 -277)" fill-rule="evenodd"></path>
</svg>